<?xml version="1.0" encoding="UTF-8" standalone="no"?>
<!-- Created with Inkscape (http://www.inkscape.org/) -->

<svg
   xmlns:dc="http://purl.org/dc/elements/1.1/"
   xmlns:cc="http://creativecommons.org/ns#"
   xmlns:rdf="http://www.w3.org/1999/02/22-rdf-syntax-ns#"
   xmlns:svg="http://www.w3.org/2000/svg"
   xmlns="http://www.w3.org/2000/svg"
   xmlns:sodipodi="http://sodipodi.sourceforge.net/DTD/sodipodi-0.dtd"
   xmlns:inkscape="http://www.inkscape.org/namespaces/inkscape"
   width="48"
   height="48"
   viewBox="0 0 12.7 12.7"
   version="1.1"
   id="svg822"
   inkscape:version="0.92.3 (2405546, 2018-03-11)"
   sodipodi:docname="x.svg">
  <defs
     id="defs816" />
  <sodipodi:namedview
     id="base"
     pagecolor="#ffffff"
     bordercolor="#666666"
     borderopacity="1.0"
     inkscape:pageopacity="0.0"
     inkscape:pageshadow="2"
     inkscape:zoom="5.6"
     inkscape:cx="20.681153"
     inkscape:cy="7.6205748"
     inkscape:document-units="mm"
     inkscape:current-layer="layer1-0"
     showgrid="false"
     units="px"
     inkscape:window-width="1920"
     inkscape:window-height="1000"
     inkscape:window-x="-11"
     inkscape:window-y="-11"
     inkscape:window-maximized="1" />
  <metadata
     id="metadata819">
    <rdf:RDF>
      <cc:Work
         rdf:about="">
        <dc:format>image/svg+xml</dc:format>
        <dc:type
           rdf:resource="http://purl.org/dc/dcmitype/StillImage" />
        <dc:title></dc:title>
      </cc:Work>
    </rdf:RDF>
  </metadata>
  <g
     inkscape:label="Ebene 1"
     inkscape:groupmode="layer"
     id="layer1"
     transform="translate(0,-284.3)">
    <g
       id="layer1-0"
       inkscape:label="Ebene 1"
       transform="translate(-66.122596,221.99086)">
      <g
         id="layer1-2"
         inkscape:label="Ebene 1"
         transform="matrix(0.11314972,0,0,0.11314972,55.330867,52.171298)">
        <path
           inkscape:connector-curvature="0"
           id="path4596"
           d="m 143.47203,198.77027 c -11.51718,-1.75669 -21.70487,-6.87876 -29.87057,-15.01804 -8.07938,-8.05325 -12.99633,-17.40415 -15.145339,-28.80291 -0.650379,-3.44974 -0.781689,-12.31449 -0.240289,-16.22189 1.631113,-11.77207 6.792898,-22.13804 15.220108,-30.56525 7.92125,-7.92124 17.34589,-12.85227 28.63087,-14.979826 3.43781,-0.64813 12.31082,-0.781414 16.22189,-0.243674 11.83987,1.627888 22.18531,6.809217 30.74759,15.39939 6.8662,6.88856 11.40069,14.84365 13.84525,24.28943 2.01683,7.79307 2.15557,17.15749 0.3726,25.14993 -1.36988,6.14067 -4.80553,13.75836 -8.60301,19.07495 -2.56727,3.59429 -7.73939,8.96137 -11.03643,11.45249 -7.41386,5.60161 -15.84514,9.13758 -24.96308,10.46918 -3.49702,0.51071 -11.82009,0.50863 -15.17959,-0.004 z m -2.30935,-32.58136 10.12606,-10.26356 10.13774,10.2526 10.13775,10.25261 h 4.80546 4.80546 v -4.74079 -4.74078 l -10.28573,-10.09902 -10.28574,-10.09901 10.28574,-10.20335 10.28573,-10.20334 v -4.85477 -4.85478 l -4.69635,0.001 -4.69635,0.002 -10.18646,10.44676 c -5.60255,5.74568 -10.25618,10.41822 -10.3414,10.38338 -0.0852,-0.0348 -4.70993,-4.73655 -10.27716,-10.44824 l -10.12222,-10.3849 h -4.87024 -4.87023 l 0.002,4.82865 0.001,4.82865 10.44676,10.18645 c 5.74572,5.60256 10.41825,10.24769 10.38341,10.32253 -0.0348,0.0748 -4.7313,4.71827 -10.43657,10.31875 l -10.37322,10.18268 -0.0117,4.56407 -0.0117,4.56406 4.96094,0.0109 4.96094,0.011 10.12606,-10.26356 z"
           style="fill:#e50f0f;fill-opacity:1;stroke-width:0.26458335" />
      </g>
    </g>
  </g>
</svg>
